<svg width="28" height="28" viewBox="0 0 28 28" fill="none" xmlns="http://www.w3.org/2000/svg">
<path d="M1.09375 22.2031H13.8359C14.44 22.2031 14.9297 22.6928 14.9297 23.2969C14.9297 23.901 14.44 24.3906 13.8359 24.3906H1.09375C0.489672 24.3906 0 23.901 0 23.2969C0 22.6928 0.489672 22.2031 1.09375 22.2031Z" fill="#1DB95C"/>
<path d="M20.3984 18.6484C22.2077 18.6484 23.6797 20.1204 23.6797 21.9297V22.2031H26.9062C27.5103 22.2031 28 22.6928 28 23.2969C28 23.901 27.5103 24.3906 26.9062 24.3906H23.6797V24.7188C23.6797 26.528 22.2077 28 20.3984 28C18.5892 28 17.1172 26.528 17.1172 24.7188V21.9297C17.1172 20.1204 18.5892 18.6484 20.3984 18.6484Z" fill="#1DB95C"/>
<path d="M13.8334 5.74219H1.09375C0.489672 5.74219 0 5.25252 0 4.64844C0 4.04436 0.489672 3.55469 1.09375 3.55469H13.8334C14.4375 3.55469 14.9272 4.04436 14.9272 4.64844C14.9272 5.25252 14.4375 5.74219 13.8334 5.74219Z" fill="#1DB95C"/>
<path d="M1.09375 12.9131H4.21094C4.81502 12.9131 5.30469 13.4028 5.30469 14.0068C5.30469 14.6109 4.81502 15.1006 4.21094 15.1006H1.09375C0.489672 15.1006 0 14.6109 0 14.0068C0 13.4028 0.489672 12.9131 1.09375 12.9131Z" fill="#1DB95C"/>
<path d="M26.9062 15.1004H14.0547V15.4766C14.0547 17.2858 12.5827 18.7578 10.7734 18.7578C8.96416 18.7578 7.49219 17.2858 7.49219 15.4766V12.6328C7.49219 10.8235 8.96416 9.35156 10.7734 9.35156C12.5827 9.35156 14.0547 10.8235 14.0547 12.6328V12.9129H26.9062C27.5103 12.9129 28 13.4026 28 14.0067C28 14.6107 27.5103 15.1004 26.9062 15.1004Z" fill="#1DB95C"/>
<path d="M26.9068 5.74219H23.6777V6.07031C23.6777 7.87959 22.2058 9.35156 20.3965 9.35156C18.5872 9.35156 17.1152 7.87959 17.1152 6.07031V3.28125C17.1152 1.47197 18.5872 0 20.3965 0C22.2058 0 23.6777 1.47197 23.6777 3.28125V3.55469H26.9068C27.5109 3.55469 28.0006 4.04436 28.0006 4.64844C28.0006 5.25252 27.5109 5.74219 26.9068 5.74219Z" fill="#1DB95C"/>
</svg>
