<svg width="164" height="50" viewBox="0 0 164 50" fill="none" xmlns="http://www.w3.org/2000/svg">
<path d="M3.23056 10.9134H3.99056V6.75335C3.99056 5.63335 3.99056 4.75334 4.08056 4.12334C4.12365 3.54772 4.29081 2.98825 4.57056 2.48334C4.85214 2.0034 5.25583 1.60661 5.74056 1.33335C6.25638 1.02216 6.84815 0.859509 7.45056 0.863348C8.34732 0.871422 9.20525 1.23039 9.84056 1.86335C10.304 2.29483 10.619 2.86189 10.7406 3.48334C10.8892 4.3753 10.9528 5.27937 10.9306 6.18335V10.9033H13.4506C14.2589 10.8446 15.0595 11.0948 15.6906 11.6034C15.9439 11.8262 16.1451 12.1021 16.2799 12.4115C16.4147 12.7208 16.4798 13.056 16.4706 13.3933C16.5122 13.8002 16.4282 14.2101 16.2297 14.5677C16.0312 14.9253 15.7279 15.2135 15.3606 15.3933C14.3648 15.8222 13.283 16.0139 12.2006 15.9533H10.9206V28.6634C10.9105 29.4981 10.9472 30.3327 11.0306 31.1634C11.0853 31.6876 11.298 32.1828 11.6406 32.5833C11.8565 32.7805 12.1113 32.9304 12.3885 33.0233C12.6658 33.1163 12.9594 33.1504 13.2506 33.1233C13.806 33.1058 14.3585 33.0355 14.9006 32.9133C15.4352 32.7859 15.9813 32.7122 16.5306 32.6933C16.8143 32.6983 17.0941 32.7601 17.3535 32.8752C17.6129 32.9903 17.8465 33.1563 18.0406 33.3633C18.2602 33.5813 18.4329 33.8419 18.5481 34.1291C18.6633 34.4163 18.7186 34.724 18.7106 35.0333C18.6999 35.595 18.5193 36.1402 18.1926 36.5972C17.866 37.0542 17.4085 37.4015 16.8806 37.5933C15.2161 38.2682 13.4245 38.572 11.6306 38.4833C9.9176 38.5885 8.20952 38.2108 6.70056 37.3933C5.62078 36.7027 4.83931 35.6322 4.51056 34.3933C4.11873 32.7024 3.94399 30.9684 3.99056 29.2333V15.9334H3.07056C2.24811 15.9936 1.4334 15.7399 0.790558 15.2233C0.535674 14.999 0.332904 14.7217 0.196443 14.4107C0.0599815 14.0998 -0.00687336 13.7628 0.000558169 13.4233C-0.00617867 13.0815 0.065067 12.7427 0.208885 12.4325C0.352702 12.1224 0.565309 11.8491 0.830558 11.6334C1.51853 11.1137 2.37015 10.8582 3.23056 10.9134Z" fill="black"/>
<path d="M29.45 28.484V34.274C29.5329 35.4164 29.1751 36.5472 28.45 37.434C28.1299 37.7769 27.7406 38.0478 27.3079 38.2288C26.8751 38.4098 26.4089 38.4968 25.94 38.484C25.4719 38.4987 25.0064 38.4105 24.5761 38.2256C24.1459 38.0407 23.7615 37.7637 23.45 37.414C22.7369 36.5286 22.3803 35.4087 22.45 34.274V14.974C22.45 11.8607 23.5733 10.304 25.82 10.304C26.2932 10.2621 26.7693 10.34 27.2044 10.5305C27.6396 10.721 28.0198 11.0179 28.31 11.394C28.8898 12.3696 29.1811 13.4895 29.15 14.624C29.8123 13.4115 30.6744 12.3196 31.7 11.394C32.698 10.6298 33.9344 10.2436 35.19 10.304C36.6783 10.3095 38.142 10.684 39.45 11.394C40.0359 11.628 40.5419 12.0261 40.9073 12.5405C41.2727 13.0548 41.4819 13.6637 41.51 14.294C41.5086 15.0424 41.2208 15.7619 40.7057 16.3049C40.1906 16.8478 39.4873 17.1731 38.74 17.214C38.1118 17.1227 37.495 16.9651 36.9 16.744C36.0702 16.4521 35.1994 16.2935 34.32 16.274C33.4238 16.232 32.5427 16.5162 31.84 17.074C31.1241 17.7047 30.6036 18.5271 30.34 19.444C29.9496 20.6613 29.7013 21.9196 29.6 23.194C29.5 24.634 29.45 26.404 29.45 28.484Z" fill="black"/>
<path d="M64.67 26.0928H51.11C51.1158 27.5383 51.4582 28.9626 52.11 30.2528C52.6348 31.3447 53.4602 32.2644 54.4893 32.9038C55.5184 33.5432 56.7085 33.8759 57.92 33.8628C58.6865 33.8732 59.4507 33.7756 60.19 33.5728C60.8982 33.3707 61.5723 33.064 62.19 32.6628C62.8108 32.2575 63.4053 31.8133 63.97 31.3328C64.51 30.8528 65.21 30.2128 66.07 29.4028C66.5074 29.0691 67.0511 28.9057 67.6 28.9428C68.2258 28.9128 68.84 29.1199 69.32 29.5228C69.5445 29.7324 69.72 29.989 69.8341 30.2742C69.9481 30.5593 69.9979 30.8662 69.98 31.1728C69.9324 31.9572 69.6808 32.7156 69.25 33.3728C68.6701 34.3101 67.9166 35.128 67.03 35.7828C65.8983 36.6256 64.6344 37.2745 63.29 37.7028C61.6231 38.2366 59.8799 38.4934 58.13 38.4628C53.6766 38.4628 50.2166 37.1928 47.75 34.6528C45.2833 32.1128 44.0466 28.6695 44.04 24.3228C44.0202 22.3851 44.3279 20.458 44.95 18.6228C45.5131 16.9515 46.4229 15.418 47.62 14.1228C48.8195 12.8458 50.2932 11.8577 51.93 11.2328C53.7484 10.5504 55.6778 10.2113 57.62 10.2328C60.0651 10.1585 62.4845 10.7496 64.62 11.9428C66.4561 12.9831 67.9633 14.518 68.97 16.3728C69.9071 18.0699 70.4055 19.9742 70.42 21.9128C70.42 23.6528 69.92 24.7828 68.92 25.3028C67.5838 25.8924 66.1287 26.1628 64.67 26.0928ZM51.11 22.1628H63.68C63.6671 20.2282 62.9892 18.3568 61.76 16.8628C61.1976 16.2734 60.5161 15.8106 59.7609 15.5054C59.0056 15.2002 58.1939 15.0595 57.38 15.0928C56.5862 15.0672 55.7962 15.2119 55.0631 15.5172C54.3301 15.8226 53.6709 16.2814 53.13 16.8628C51.8992 18.3634 51.1902 20.2237 51.11 22.1628Z" fill="black"/>
<path d="M94.7801 35.3133L88.6601 25.2533L84.9001 28.8633V34.3733C84.9874 35.4918 84.6278 36.5994 83.9001 37.4533C83.5859 37.7859 83.2056 38.0494 82.7838 38.2267C82.3619 38.4041 81.9077 38.4914 81.4501 38.4833C80.9767 38.5061 80.5041 38.4217 80.0678 38.2364C79.6315 38.0511 79.2426 37.7698 78.9301 37.4133C78.2616 36.5089 77.9388 35.3951 78.0201 34.2733V4.7233C77.9408 3.48571 78.2521 2.25445 78.9101 1.2033C79.2034 0.811168 79.5882 0.496805 80.031 0.287631C80.4738 0.0784563 80.961 -0.0191671 81.4501 0.00329832C81.9269 -0.0185343 82.4023 0.0682414 82.8406 0.257067C83.2789 0.445893 83.6685 0.731829 83.9801 1.09329C84.6705 2.01865 85.0042 3.16184 84.9201 4.3133V21.1233L92.7201 12.9433C93.3996 12.1916 94.1387 11.496 94.9301 10.8633C95.5323 10.458 96.2522 10.2645 96.9764 10.3134C97.7006 10.3623 98.3879 10.6507 98.9301 11.1333C99.2103 11.399 99.4316 11.7205 99.5797 12.0771C99.7279 12.4336 99.7996 12.8173 99.7901 13.2033C99.7901 14.2033 98.8501 15.5733 96.9701 17.2633L93.2901 20.6333L100.4 31.8033C100.92 32.6333 101.3 33.2633 101.53 33.6933C101.742 34.0696 101.858 34.4918 101.87 34.9233C101.923 35.8776 101.6 36.8147 100.97 37.5333C100.668 37.8584 100.301 38.1156 99.8926 38.288C99.484 38.4604 99.0435 38.544 98.6001 38.5333C98.2373 38.5618 97.8724 38.5153 97.5283 38.3965C97.1842 38.2778 96.8682 38.0895 96.6001 37.8433C95.9126 37.0612 95.303 36.2138 94.7801 35.3133Z" fill="black"/>
<path d="M125.879 35.3132L119.759 25.2532L115.999 28.8632V34.3732C116.086 35.4917 115.727 36.5992 114.999 37.4532C114.693 37.7911 114.319 38.0617 113.903 38.2476C113.486 38.4335 113.035 38.5308 112.579 38.5332C112.106 38.5559 111.633 38.4715 111.197 38.2862C110.76 38.101 110.372 37.8196 110.059 37.4632C109.391 36.5587 109.068 35.4449 109.149 34.3232V4.72316C109.07 3.48557 109.381 2.25431 110.039 1.20316C110.332 0.811028 110.717 0.496666 111.16 0.287491C111.603 0.078317 112.09 -0.0193064 112.579 0.00315903C113.057 -0.0172673 113.534 0.0700935 113.973 0.258774C114.413 0.447455 114.805 0.732619 115.119 1.09316C115.802 2.02187 116.132 3.16341 116.049 4.31316V21.1232L123.849 12.9432C124.528 12.1914 125.268 11.4958 126.059 10.8632C126.661 10.4578 127.381 10.2644 128.105 10.3133C128.829 10.3621 129.517 10.6506 130.059 11.1332C130.339 11.3988 130.561 11.7204 130.709 12.0769C130.857 12.4335 130.928 12.8172 130.919 13.2032C130.919 14.2032 129.979 15.5732 128.099 17.2632L124.419 20.6332L131.449 31.8032C131.969 32.6332 132.349 33.2632 132.579 33.6932C132.791 34.0695 132.907 34.4916 132.919 34.9232C132.972 35.8774 132.649 36.8145 132.019 37.5332C131.717 37.8582 131.35 38.1155 130.942 38.2879C130.533 38.4603 130.092 38.5439 129.649 38.5332C129.286 38.5617 128.921 38.5151 128.577 38.3964C128.233 38.2777 127.917 38.0894 127.649 37.8432C126.982 37.0562 126.39 36.2092 125.879 35.3132Z" fill="black"/>
<path d="M163.68 24.3932C163.688 26.3408 163.349 28.2743 162.68 30.1033C162.072 31.783 161.118 33.3161 159.88 34.6033C158.649 35.8644 157.163 36.8466 155.52 37.4832C153.696 38.1702 151.759 38.5093 149.81 38.4832C147.876 38.5202 145.954 38.1805 144.15 37.4832C142.508 36.8358 141.022 35.8474 139.79 34.5832C138.558 33.3043 137.608 31.7817 137 30.1132C135.727 26.3993 135.727 22.3672 137 18.6532C137.602 16.9868 138.546 15.4644 139.77 14.1833C141.003 12.9278 142.494 11.9553 144.14 11.3332C147.809 9.98006 151.841 9.98006 155.51 11.3332C157.164 11.9704 158.661 12.9561 159.9 14.2232C161.133 15.4994 162.08 17.0231 162.68 18.6932C163.345 20.5198 163.684 22.4493 163.68 24.3932ZM156.73 24.3932C156.87 22.0452 156.211 19.7188 154.86 17.7932C154.273 17.0315 153.514 16.4202 152.645 16.0098C151.775 15.5994 150.821 15.4018 149.86 15.4333C148.587 15.408 147.337 15.7746 146.28 16.4832C145.193 17.2605 144.361 18.3429 143.89 19.5932C142.776 22.6792 142.776 26.0573 143.89 29.1432C144.359 30.3866 145.179 31.467 146.25 32.2532C147.312 32.986 148.579 33.364 149.87 33.3332C150.833 33.3673 151.79 33.1688 152.661 32.7546C153.531 32.3403 154.289 31.7224 154.87 30.9532C156.211 29.0384 156.866 26.727 156.73 24.3932Z" fill="black"/>
<path d="M81.3611 49.98C83.2886 49.98 84.8511 48.4175 84.8511 46.49C84.8511 44.5625 83.2886 43 81.3611 43C79.4336 43 77.8711 44.5625 77.8711 46.49C77.8711 48.4175 79.4336 49.98 81.3611 49.98Z" fill="url(#paint0_linear)"/>
<path d="M98.4002 49.98C100.328 49.98 101.89 48.4175 101.89 46.49C101.89 44.5625 100.328 43 98.4002 43C96.4727 43 94.9102 44.5625 94.9102 46.49C94.9102 48.4175 96.4727 49.98 98.4002 49.98Z" fill="url(#paint1_linear)"/>
<path d="M129.592 49.98C131.519 49.98 133.082 48.4175 133.082 46.49C133.082 44.5625 131.519 43 129.592 43C127.664 43 126.102 44.5625 126.102 46.49C126.102 48.4175 127.664 49.98 129.592 49.98Z" fill="url(#paint2_linear)"/>
<path d="M112.619 49.98C114.546 49.98 116.109 48.4175 116.109 46.49C116.109 44.5625 114.546 43 112.619 43C110.691 43 109.129 44.5625 109.129 46.49C109.129 48.4175 110.691 49.98 112.619 49.98Z" fill="url(#paint3_linear)"/>
<defs>
<linearGradient id="paint0_linear" x1="81.3611" y1="43" x2="81.3611" y2="49.98" gradientUnits="userSpaceOnUse">
<stop stop-color="#1DB95C"/>
<stop offset="1" stop-color="#03A343"/>
</linearGradient>
<linearGradient id="paint1_linear" x1="98.4002" y1="43" x2="98.4002" y2="49.98" gradientUnits="userSpaceOnUse">
<stop stop-color="#1DB95C"/>
<stop offset="1" stop-color="#03A343"/>
</linearGradient>
<linearGradient id="paint2_linear" x1="129.592" y1="43" x2="129.592" y2="49.98" gradientUnits="userSpaceOnUse">
<stop stop-color="#1DB95C"/>
<stop offset="1" stop-color="#03A343"/>
</linearGradient>
<linearGradient id="paint3_linear" x1="112.619" y1="43" x2="112.619" y2="49.98" gradientUnits="userSpaceOnUse">
<stop stop-color="#1DB95C"/>
<stop offset="1" stop-color="#03A343"/>
</linearGradient>
</defs>
</svg>
