<svg width="24" height="24" viewBox="0 0 24 24" fill="none" xmlns="http://www.w3.org/2000/svg">
<path fill-rule="evenodd" clip-rule="evenodd" d="M17.3086 15.3811L23.2139 21.1956C23.6733 21.6479 23.6748 22.3798 23.2101 22.8374C22.7485 23.2918 21.9936 23.2853 21.5426 22.8412L15.6373 17.0268C11.9282 19.869 6.56316 19.6117 3.15394 16.2549C-0.538292 12.6195 -0.538292 6.72528 3.15394 3.08985C6.84617 -0.545575 12.8325 -0.545575 16.5247 3.08985C19.9339 6.44662 20.1952 11.7292 17.3086 15.3811ZM14.8533 14.6093C17.6225 11.8827 17.6225 7.46205 14.8533 4.73548C12.0842 2.00891 7.59445 2.00891 4.82528 4.73548C2.05611 7.46205 2.05611 11.8827 4.82528 14.6093C7.59445 17.3358 12.0842 17.3358 14.8533 14.6093Z" fill="#898989"/>
</svg>
